<svg width="660" height="353" viewBox="0 0 660 353" fill="none" xmlns="http://www.w3.org/2000/svg">
<g clip-path="url(#clip0_2_151)">
<path d="M283.262 41.8106H264.134C260.719 41.8106 257.941 39.0322 257.941 35.6177V6.19287C257.941 2.77832 260.719 0 264.134 0H283.262C286.677 0 289.455 2.77832 289.455 6.19287V35.6177C289.455 39.0322 286.677 41.8106 283.262 41.8106Z" fill="#AF26D1"/>
<path d="M325.133 41.8106H306.003C302.589 41.8106 299.81 39.0322 299.81 35.6177V6.19287C299.81 2.77832 302.589 0 306.003 0H325.133C328.547 0 331.325 2.77832 331.325 6.19287V35.6177C331.325 39.0322 328.547 41.8106 325.133 41.8106Z" fill="#AF26D1"/>
<path d="M369.748 41.8106H350.619C347.204 41.8106 344.426 39.0322 344.426 35.6177V6.19287C344.426 2.77832 347.204 0 350.619 0H369.748C373.162 0 375.941 2.77832 375.941 6.19287V35.6177C375.941 39.0322 373.162 41.8106 369.748 41.8106Z" fill="#AF26D1"/>
<path d="M160.486 137.305C163.801 133.931 168.229 132.907 170.375 135.017C172.521 137.127 171.574 141.571 168.258 144.945C166.951 146.311 165.337 147.345 163.549 147.959L149.324 162.074L142.843 155.258L157.554 142.066C158.137 140.267 159.143 138.635 160.486 137.305Z" fill="#A0616A"/>
<path d="M114.992 125.653L129.907 158.741L153.724 145.849L162.248 150.373C162.248 150.373 142.778 182.922 129.447 179.217C116.116 175.512 92.4439 141.914 96.709 131.545C100.974 121.175 114.992 125.653 114.992 125.653Z" fill="#3F3D56"/>
<path d="M530.941 14.8105H566.148L579.941 24.8105L543.98 26.8105L530.941 14.8105Z" fill="#AF26D1"/>
<path d="M0 346.999C0 347.659 0.53003 348.189 1.19006 348.189H595.48C596.14 348.189 596.67 347.659 596.67 346.999C596.67 346.339 596.14 345.809 595.48 345.809H1.19006C0.53003 345.809 0 346.339 0 346.999Z" fill="#3F3D56"/>
<path d="M602.099 93.8374L615.954 100.401C610.271 92.47 605.374 80.0837 602.753 70.2275C598.314 79.4086 591.159 90.6424 584.076 97.3527L598.719 93.5855C589.696 137.809 555.757 169.557 516.892 169.557L516.342 171.154C556.937 171.154 592.885 139.846 602.099 93.8374Z" fill="#3F3D56"/>
<path d="M316.099 70.8374L329.954 77.4008C324.271 69.47 319.374 57.0837 316.753 47.2275C312.314 56.4086 305.159 67.6424 298.076 74.3527L312.72 70.5855C303.696 114.809 269.757 146.557 230.892 146.557L230.342 148.154C270.937 148.154 306.885 116.846 316.099 70.8374Z" fill="#3F3D56"/>
<path d="M528.612 203.919C526.646 201.577 524.291 199.985 522.176 199.372L497.303 171.255C497.303 171.255 495.226 145.081 493.564 135.941C491.902 126.801 480.685 129.294 480.685 129.294L481.931 155.468L488.994 183.719L518.099 208.429C518.607 209.355 519.23 210.28 519.977 211.169C523.518 215.387 528.321 217.183 530.706 215.18C533.09 213.178 532.153 208.136 528.612 203.919Z" fill="#FFB6B6"/>
<path d="M409.133 203.919C411.1 201.577 413.455 199.985 415.57 199.372L440.443 171.255C440.443 171.255 442.52 145.081 444.182 135.941C445.844 126.801 457.061 129.294 457.061 129.294L455.815 155.468L448.752 183.719L419.647 208.429C419.138 209.355 418.515 210.28 417.769 211.169C414.228 215.387 409.425 217.183 407.04 215.18C404.655 213.178 405.593 208.136 409.133 203.919Z" fill="#FFB6B6"/>
<path d="M463.859 125.762L466.744 114.67L477.984 114.13L481.347 129.42L463.859 125.762Z" fill="#FFB6B6"/>
<path opacity="0.1" d="M463.859 125.762L466.744 114.67L477.984 114.13L481.347 129.42L463.859 125.762Z" fill="black"/>
<path d="M435.156 307.482L424.628 306.88L426.009 339.189L433.143 339.597L435.156 307.482Z" fill="#FFB6B6"/>
<path d="M425.097 328.974L428.753 330.641L428.748 332.857C428.748 332.857 429.63 330.293 434.364 329.733L434.929 331.882C434.929 331.882 436.765 333.989 436.45 337.801L435.245 348.009L431.675 347.926L431.098 340.823C431.098 340.823 430.115 339.211 425.585 346.871C425.585 346.871 420.594 348.128 412.867 345.537C411.805 345.181 411.067 344.189 411.081 343.069C411.088 342.451 411.33 341.88 412.105 341.675C414.078 341.153 416.005 341.815 417.279 340.24C418.553 338.665 425.097 328.974 425.097 328.974Z" fill="#2F2E41"/>
<path d="M491.658 307.482L481.13 306.88L482.511 339.189L489.645 339.597L491.658 307.482Z" fill="#FFB6B6"/>
<path d="M481.599 328.974L485.255 330.641L485.25 332.857C485.25 332.857 486.132 330.293 490.866 329.733L491.431 331.882C491.431 331.882 493.267 333.989 492.952 337.801L491.747 348.009L488.177 347.926L487.6 340.823C487.6 340.823 486.617 339.211 482.087 346.871C482.087 346.871 477.097 348.128 469.369 345.537C468.307 345.181 467.569 344.189 467.583 343.069C467.591 342.451 467.832 341.88 468.607 341.675C470.58 341.153 472.507 341.815 473.781 340.24C475.056 338.665 481.599 328.974 481.599 328.974Z" fill="#2F2E41"/>
<path d="M472.501 121.203C479.384 121.203 484.965 115.622 484.965 108.739C484.965 101.855 479.384 96.2751 472.501 96.2751C465.617 96.2751 460.037 101.855 460.037 108.739C460.037 115.622 465.617 121.203 472.501 121.203Z" fill="#FFB6B6"/>
<path d="M479.569 110.811C479.569 110.811 474.089 101.844 468.603 102.834C463.118 103.824 460.259 104.717 460.259 104.717C460.259 104.717 458.025 97.5683 465.524 94.1385C465.524 94.1385 454.911 85.2526 466.222 79.5499C477.534 73.8472 484.572 79.3741 484.572 79.3741C484.572 79.3741 493.934 87.3137 483.554 94.6615C483.554 94.6615 492.538 104.895 483.464 114.67C483.464 114.67 485.066 107.227 482.887 108.753C480.708 110.279 479.569 110.811 479.569 110.811Z" fill="#2F2E41"/>
<path d="M480.892 126.593L463.859 124.516L450.772 135.11C450.772 135.11 444.263 153.245 449.11 164.192C449.226 164.455 449.318 182.68 449.318 182.68H485.508C485.508 182.68 485.473 170.275 486.856 165.782C487.053 165.14 487.28 164.66 487.54 164.4C489.617 162.323 494.602 149.028 492.11 143.212C489.617 137.395 480.892 126.593 480.892 126.593Z" fill="#E6E6E6"/>
<path d="M449.11 181.849L426.26 254.554L421.274 311.887H435.192L447.033 258.709L463.339 227.926L479.438 316.042H493.487L493.148 196.806L485.479 181.849H449.11Z" fill="#2F2E41"/>
<path d="M468.502 271.249C499.361 271.249 524.376 246.233 524.376 215.374C524.376 184.516 499.361 159.5 468.502 159.5C437.644 159.5 412.628 184.516 412.628 215.374C412.628 246.233 437.644 271.249 468.502 271.249Z" fill="#6C63FF"/>
<path d="M108.452 346.169L119.328 346.168L124.501 304.22L108.45 304.221L108.452 346.169Z" fill="#A0616A"/>
<path d="M145.713 345.923C146.051 346.493 146.23 348.334 146.23 348.997C146.23 351.036 144.577 352.688 142.539 352.688H108.859C107.468 352.688 106.341 351.561 106.341 350.17V348.768C106.341 348.768 104.675 344.554 108.105 339.359C108.105 339.359 112.368 343.426 118.739 337.056L120.617 333.653L134.216 343.598L141.753 344.526C143.402 344.729 144.864 344.494 145.713 345.923Z" fill="#2F2E41"/>
<path d="M116.682 127.776L116.902 113.108L107.856 107.469L98.0203 119.501L116.682 127.776Z" fill="#A0616A"/>
<path opacity="0.1" d="M116.682 127.776L117.267 113.474L107.856 107.469L111.054 125.17L116.682 127.776Z" fill="black"/>
<path d="M116.71 117.673C125.594 117.673 132.797 110.47 132.797 101.586C132.797 92.701 125.594 85.4985 116.71 85.4985C107.825 85.4985 100.623 92.701 100.623 101.586C100.623 110.47 107.825 117.673 116.71 117.673Z" fill="#A0616A"/>
<path d="M138.649 224.77L123.663 326.747H104.862L107.362 268.536L108.678 237.929L104.862 223.36C104.862 223.36 103.122 220.121 101.656 216.196C100.004 211.766 98.6994 206.455 100.637 203.937C101.349 203.008 103.202 202.321 105.721 201.809C107.26 201.495 109.051 201.25 110.984 201.06C122.103 199.96 137.918 200.647 137.918 200.647L138.32 213.915L138.543 221.324L138.649 224.77Z" fill="#2F2E41"/>
<path d="M89.2952 341.182L100.055 342.763L111.275 302.013L95.3947 299.68L89.2952 341.182Z" fill="#A0616A"/>
<path d="M126.195 346.358C126.447 346.971 126.356 348.818 126.26 349.474C125.963 351.491 124.088 352.886 122.071 352.589L88.7493 347.69C87.3734 347.488 86.422 346.209 86.6243 344.833L86.8282 343.446C86.8282 343.446 85.7929 339.034 89.9421 334.394C89.9421 334.394 93.5685 339.038 100.798 333.662L103.151 330.568L115.159 342.385L122.481 344.4C124.083 344.84 125.564 344.821 126.195 346.358Z" fill="#2F2E41"/>
<path d="M138.885 207.764L136.83 225.465L125.62 262.767L107.168 324.178L88.5684 321.445L105.261 234.127L103.608 219.154C103.608 219.154 103.07 217.666 102.453 215.487C101.228 211.176 99.6923 204.157 101.382 200.576C101.61 200.089 101.897 199.667 102.251 199.325C102.916 198.68 104.267 198.289 106.077 198.081C113.642 197.226 129.223 199.672 136.156 200.872L138.885 207.764Z" fill="#2F2E41"/>
<path d="M100.088 116.398L118.364 125.17C118.364 125.17 137.736 182.554 137.736 185.479C137.736 188.403 143.218 190.23 139.929 193.52C136.639 196.809 146.051 199.595 140.98 202.223C135.908 204.85 104.27 219.223 100.752 217.927C91.0493 214.352 101.163 201.217 101.163 201.217C101.163 201.217 93.8747 195.347 94.9712 192.423C96.0677 189.499 88.3921 133.577 88.3921 133.577L100.088 116.398Z" fill="#3F3D56"/>
<path d="M115.727 105.439L117.797 109.577C117.797 109.577 119.866 102.128 123.176 100.473C126.487 98.8174 126.901 96.3345 126.901 96.3345C126.901 96.3345 131.039 101.714 133.936 100.473C136.832 99.2313 138.074 98.4036 134.763 93.4377C131.453 88.4718 132.28 90.9548 132.28 90.9548C132.28 90.9548 129.384 86.8165 129.797 88.058C130.211 89.2995 127.314 84.7474 127.314 85.9889C127.314 87.2303 125.245 83.5059 125.245 84.7474C125.245 85.9889 116.555 81.8506 117.797 83.5059C119.038 85.1612 110.348 80.1953 106.209 86.8165C102.071 93.4377 96.333 92.2133 98.3744 96.343C100.416 100.473 99.5882 111.646 99.5882 111.646H105.295C105.295 111.646 111.175 100.473 115.727 105.439Z" fill="#2F2E41"/>
<path d="M579.941 24.8105H545.941V58.8105H579.941V24.8105Z" fill="#AF26D1"/>
<path d="M659.941 24.8105L659.941 58.8105H625.941C625.941 40.0455 641.176 24.8105 659.941 24.8105Z" fill="#AF26D1"/>
<path d="M602.941 58.8105C611.777 58.8105 618.941 51.6471 618.941 42.8105C618.941 33.974 611.777 26.8105 602.941 26.8105C594.104 26.8105 586.941 33.974 586.941 42.8105C586.941 51.6471 594.104 58.8105 602.941 58.8105Z" fill="#AF26D1"/>
<path d="M545.941 24.8105L530.941 14.8105V41.8105L545.941 58.8105" fill="#AF26D1"/>
<path d="M306.085 13.7693L324.895 13.2006C326.201 13.1611 326.326 11.1177 325.008 11.1576L306.199 11.7262C304.892 11.7657 304.767 13.8091 306.085 13.7693Z" fill="white"/>
<path d="M306.085 20.633L324.895 20.0644C326.201 20.0249 326.326 17.9815 325.008 18.0213L306.199 18.59C304.892 18.6294 304.767 20.6729 306.085 20.633Z" fill="white"/>
<path d="M306.085 27.497L324.895 26.9284C326.201 26.8889 326.326 24.8455 325.008 24.8853L306.199 25.454C304.892 25.4935 304.767 27.5369 306.085 27.497Z" fill="white"/>
<path d="M263.836 15.5093C266.953 11.713 272.593 15.5227 276.261 16.166C278.407 16.5423 280.622 16.3436 282.433 15.0429C284.037 13.8912 285.189 12.1575 285.493 10.1941C285.694 8.89771 283.71 8.33909 283.507 9.6467C283.221 11.4934 282.082 13.1105 280.351 13.8781C278.261 14.8044 275.863 14.0582 273.83 13.3505C270.205 12.0886 265.308 10.4868 262.38 14.0533C261.545 15.0696 262.994 16.5346 263.836 15.5093Z" fill="white"/>
<path d="M263.836 23.7459C266.953 19.9495 272.593 23.7592 276.261 24.4026C278.407 24.7789 280.622 24.5802 282.433 23.2795C284.037 22.1278 285.189 20.3941 285.493 18.4307C285.694 17.1343 283.71 16.5757 283.507 17.8833C283.221 19.73 282.082 21.3471 280.351 22.1146C278.261 23.041 275.863 22.2948 273.83 21.587C270.205 20.3252 265.308 18.7234 262.38 22.2899C261.545 23.3062 262.994 24.7712 263.836 23.7459Z" fill="white"/>
<path d="M209.161 193.311H161.72C158.581 193.311 156.027 190.757 156.027 187.617V120.004C156.027 116.864 158.581 114.311 161.72 114.311H209.161C212.301 114.311 214.854 116.864 214.854 120.004V187.617C214.854 190.757 212.301 193.311 209.161 193.311Z" fill="#6C63FF"/>
<path d="M352.067 8.84112C353.058 17.2305 353.38 25.693 352.994 34.1325C352.934 35.4404 354.965 35.7888 355.026 34.4654C355.42 25.8389 355.128 17.1985 354.115 8.62192C353.96 7.3083 351.911 7.52044 352.067 8.84112Z" fill="white"/>
<path d="M358.931 8.84112C359.922 17.2305 360.244 25.693 359.857 34.1325C359.798 35.4404 361.829 35.7888 361.889 34.4654C362.284 25.8389 361.992 17.1985 360.979 8.62192C360.823 7.3083 358.775 7.52044 358.931 8.84112Z" fill="white"/>
<path d="M365.795 8.84112C366.786 17.2305 367.108 25.693 366.721 34.1325C366.662 35.4404 368.693 35.7888 368.753 34.4654C369.148 25.8389 368.856 17.1985 367.843 8.62192C367.687 7.3083 365.639 7.52044 365.795 8.84112Z" fill="white"/>
<path d="M155.775 166.962C160.311 165.622 164.679 166.876 165.531 169.763C166.383 172.65 163.397 176.075 158.86 177.415C157.055 177.975 155.142 178.095 153.281 177.764L133.992 183.199L131.635 174.092L150.9 169.701C152.283 168.412 153.955 167.473 155.775 166.962Z" fill="#A0616A"/>
<path d="M121.658 134.69L118.634 170.858L145.715 171.149L150.971 179.242C150.971 179.242 118.148 198.247 108.292 188.536C98.4359 178.825 94.0506 137.96 102.813 130.965C111.576 123.971 121.658 134.69 121.658 134.69Z" fill="#3F3D56"/>
<path d="M166.755 140.086L203.841 138.965C206.417 138.887 206.664 134.858 204.065 134.937L166.979 136.058C164.403 136.136 164.156 140.165 166.755 140.086Z" fill="white"/>
<path d="M166.755 153.535L203.841 152.413C206.417 152.336 206.664 148.307 204.065 148.385L166.979 149.506C164.403 149.584 164.156 153.613 166.755 153.535Z" fill="white"/>
<path d="M166.755 166.983L203.841 165.862C206.417 165.784 206.664 161.755 204.065 161.833L166.979 162.955C164.403 163.032 164.156 167.061 166.755 166.983Z" fill="white"/>
</g>
<defs>
<clipPath id="clip0_2_151">
<rect width="659.941" height="352.688" fill="white"/>
</clipPath>
</defs>
</svg>
